<?xml version="1.0" encoding="UTF-8" standalone="no"?>
<!DOCTYPE svg PUBLIC "-//W3C//DTD SVG 1.1//EN"
 "http://www.w3.org/Graphics/SVG/1.1/DTD/svg11.dtd">
<!-- Generated by graphviz version 2.47.0 (20210316.0004)
 -->
<!-- Title: dependencies Pages: 1 -->
<svg width="504pt" height="211pt"
 viewBox="0.00 0.00 504.00 211.00" xmlns="http://www.w3.org/2000/svg" xmlns:xlink="http://www.w3.org/1999/xlink">
<g id="graph0" class="graph" transform="scale(1 1) rotate(0) translate(4 207)">
<title>dependencies</title>
<polygon fill="white" stroke="transparent" points="-4,4 -4,-207 500,-207 500,4 -4,4"/>
<text text-anchor="start" x="227.01" y="-42.4" font-family="Times-12" font-weight="bold" font-size="14.00">Legend</text>
<polygon fill="#ffffb3" stroke="transparent" points="14,-10 14,-30 34,-30 34,-10 14,-10"/>
<text text-anchor="start" x="37.63" y="-15.4" font-family="Times-12" font-size="14.00"> &#160;Declarations</text>
<polygon fill="#8dd3c7" stroke="transparent" points="127,-10 127,-30 147,-30 147,-10 127,-10"/>
<text text-anchor="start" x="150.73" y="-15.4" font-family="Times-12" font-size="14.00"> &#160;Module</text>
<polygon fill="#80b1d3" stroke="transparent" points="213,-10 213,-30 233,-30 233,-10 213,-10"/>
<text text-anchor="start" x="236.78" y="-15.4" font-family="Times-12" font-size="14.00"> &#160;Bootstrap</text>
<polygon fill="#fdb462" stroke="transparent" points="310,-10 310,-30 330,-30 330,-10 310,-10"/>
<text text-anchor="start" x="333.67" y="-15.4" font-family="Times-12" font-size="14.00"> &#160;Providers</text>
<polygon fill="#fb8072" stroke="transparent" points="406,-10 406,-30 426,-30 426,-10 406,-10"/>
<text text-anchor="start" x="429.73" y="-15.4" font-family="Times-12" font-size="14.00"> &#160;Exports</text>
<g id="clust1" class="cluster">
<title>cluster_ResumesModule</title>
<polygon fill="none" stroke="black" stroke-dasharray="1,5" points="101,-70 101,-195 395,-195 395,-70 101,-70"/>
</g>
<g id="clust6" class="cluster">
<title>cluster_ResumesModule_providers</title>
<polygon fill="none" stroke="black" points="221,-78 221,-130 387,-130 387,-78 221,-78"/>
</g>
<g id="clust3" class="cluster">
<title>cluster_ResumesModule_imports</title>
<polygon fill="none" stroke="black" points="109,-78 109,-130 213,-130 213,-78 109,-78"/>
</g>
<!-- AuthModule -->
<g id="node1" class="node">
<title>AuthModule</title>
<polygon fill="#8dd3c7" stroke="black" points="204.55,-122 201.55,-126 180.55,-126 177.55,-122 117.45,-122 117.45,-86 204.55,-86 204.55,-122"/>
<text text-anchor="middle" x="161" y="-99.8" font-family="Times,serif" font-size="14.00">AuthModule</text>
</g>
<!-- ResumesModule -->
<g id="node2" class="node">
<title>ResumesModule</title>
<polygon fill="#8dd3c7" stroke="black" points="289.1,-187 286.1,-191 265.1,-191 262.1,-187 178.9,-187 178.9,-151 289.1,-151 289.1,-187"/>
<text text-anchor="middle" x="234" y="-164.8" font-family="Times,serif" font-size="14.00">ResumesModule</text>
</g>
<!-- AuthModule&#45;&gt;ResumesModule -->
<g id="edge1" class="edge">
<title>AuthModule&#45;&gt;ResumesModule</title>
<path fill="none" stroke="black" d="M191.86,-122.11C191.86,-122.11 191.86,-140.99 191.86,-140.99"/>
<polygon fill="black" stroke="black" points="188.36,-140.99 191.86,-150.99 195.36,-140.99 188.36,-140.99"/>
</g>
<!-- ResumesService -->
<g id="node3" class="node">
<title>ResumesService</title>
<ellipse fill="#fdb462" stroke="black" cx="304" cy="-104" rx="74.71" ry="18"/>
<text text-anchor="middle" x="304" y="-99.8" font-family="Times,serif" font-size="14.00">ResumesService</text>
</g>
<!-- ResumesService&#45;&gt;ResumesModule -->
<g id="edge2" class="edge">
<title>ResumesService&#45;&gt;ResumesModule</title>
<path fill="none" stroke="black" d="M259.1,-118.43C259.1,-118.43 259.1,-140.89 259.1,-140.89"/>
<polygon fill="black" stroke="black" points="255.6,-140.89 259.1,-150.89 262.6,-140.89 255.6,-140.89"/>
</g>
</g>
</svg>
