<?xml version="1.0" encoding="UTF-8" standalone="no"?>
<!DOCTYPE svg PUBLIC "-//W3C//DTD SVG 1.1//EN"
 "http://www.w3.org/Graphics/SVG/1.1/DTD/svg11.dtd">
<!-- Generated by graphviz version 2.47.0 (20210316.0004)
 -->
<!-- Title: dependencies Pages: 1 -->
<svg width="504pt" height="211pt"
 viewBox="0.00 0.00 504.00 211.00" xmlns="http://www.w3.org/2000/svg" xmlns:xlink="http://www.w3.org/1999/xlink">
<g id="graph0" class="graph" transform="scale(1 1) rotate(0) translate(4 207)">
<title>dependencies</title>
<polygon fill="white" stroke="transparent" points="-4,4 -4,-207 500,-207 500,4 -4,4"/>
<text text-anchor="start" x="227.01" y="-42.4" font-family="Times-12" font-weight="bold" font-size="14.00">Legend</text>
<polygon fill="#ffffb3" stroke="transparent" points="14,-10 14,-30 34,-30 34,-10 14,-10"/>
<text text-anchor="start" x="37.63" y="-15.4" font-family="Times-12" font-size="14.00"> &#160;Declarations</text>
<polygon fill="#8dd3c7" stroke="transparent" points="127,-10 127,-30 147,-30 147,-10 127,-10"/>
<text text-anchor="start" x="150.73" y="-15.4" font-family="Times-12" font-size="14.00"> &#160;Module</text>
<polygon fill="#80b1d3" stroke="transparent" points="213,-10 213,-30 233,-30 233,-10 213,-10"/>
<text text-anchor="start" x="236.78" y="-15.4" font-family="Times-12" font-size="14.00"> &#160;Bootstrap</text>
<polygon fill="#fdb462" stroke="transparent" points="310,-10 310,-30 330,-30 330,-10 310,-10"/>
<text text-anchor="start" x="333.67" y="-15.4" font-family="Times-12" font-size="14.00"> &#160;Providers</text>
<polygon fill="#fb8072" stroke="transparent" points="406,-10 406,-30 426,-30 426,-10 406,-10"/>
<text text-anchor="start" x="429.73" y="-15.4" font-family="Times-12" font-size="14.00"> &#160;Exports</text>
<g id="clust1" class="cluster">
<title>cluster_JobsModule</title>
<polygon fill="none" stroke="black" stroke-dasharray="1,5" points="64.5,-70 64.5,-195 431.5,-195 431.5,-70 64.5,-70"/>
</g>
<g id="clust3" class="cluster">
<title>cluster_JobsModule_imports</title>
<polygon fill="none" stroke="black" points="210.5,-78 210.5,-130 423.5,-130 423.5,-78 210.5,-78"/>
</g>
<g id="clust6" class="cluster">
<title>cluster_JobsModule_providers</title>
<polygon fill="none" stroke="black" points="72.5,-78 72.5,-130 202.5,-130 202.5,-78 72.5,-78"/>
</g>
<!-- AuthModule -->
<g id="node1" class="node">
<title>AuthModule</title>
<polygon fill="#8dd3c7" stroke="black" points="415.05,-122 412.05,-126 391.05,-126 388.05,-122 327.95,-122 327.95,-86 415.05,-86 415.05,-122"/>
<text text-anchor="middle" x="371.5" y="-99.8" font-family="Times,serif" font-size="14.00">AuthModule</text>
</g>
<!-- JobsModule -->
<g id="node3" class="node">
<title>JobsModule</title>
<polygon fill="#8dd3c7" stroke="black" points="306.94,-187 303.94,-191 282.94,-191 279.94,-187 222.06,-187 222.06,-151 306.94,-151 306.94,-187"/>
<text text-anchor="middle" x="264.5" y="-164.8" font-family="Times,serif" font-size="14.00">JobsModule</text>
</g>
<!-- AuthModule&#45;&gt;JobsModule -->
<g id="edge1" class="edge">
<title>AuthModule&#45;&gt;JobsModule</title>
<path fill="none" stroke="black" d="M371.5,-122.11C371.5,-141.34 371.5,-169 371.5,-169 371.5,-169 316.79,-169 316.79,-169"/>
<polygon fill="black" stroke="black" points="316.79,-165.5 306.79,-169 316.79,-172.5 316.79,-165.5"/>
</g>
<!-- UsersModule -->
<g id="node2" class="node">
<title>UsersModule</title>
<polygon fill="#8dd3c7" stroke="black" points="310.42,-122 307.42,-126 286.42,-126 283.42,-122 218.58,-122 218.58,-86 310.42,-86 310.42,-122"/>
<text text-anchor="middle" x="264.5" y="-99.8" font-family="Times,serif" font-size="14.00">UsersModule</text>
</g>
<!-- UsersModule&#45;&gt;JobsModule -->
<g id="edge2" class="edge">
<title>UsersModule&#45;&gt;JobsModule</title>
<path fill="none" stroke="black" d="M264.5,-122.11C264.5,-122.11 264.5,-140.99 264.5,-140.99"/>
<polygon fill="black" stroke="black" points="261,-140.99 264.5,-150.99 268,-140.99 261,-140.99"/>
</g>
<!-- JobsService -->
<g id="node4" class="node">
<title>JobsService</title>
<ellipse fill="#fdb462" stroke="black" cx="137.5" cy="-104" rx="57.32" ry="18"/>
<text text-anchor="middle" x="137.5" y="-99.8" font-family="Times,serif" font-size="14.00">JobsService</text>
</g>
<!-- JobsService&#45;&gt;JobsModule -->
<g id="edge3" class="edge">
<title>JobsService&#45;&gt;JobsModule</title>
<path fill="none" stroke="black" d="M137.5,-122.11C137.5,-141.34 137.5,-169 137.5,-169 137.5,-169 212.21,-169 212.21,-169"/>
<polygon fill="black" stroke="black" points="212.21,-172.5 222.21,-169 212.21,-165.5 212.21,-172.5"/>
</g>
</g>
</svg>
