<?xml version="1.0" encoding="UTF-8" standalone="no"?>
<!DOCTYPE svg PUBLIC "-//W3C//DTD SVG 1.1//EN"
 "http://www.w3.org/Graphics/SVG/1.1/DTD/svg11.dtd">
<!-- Generated by graphviz version 2.47.0 (20210316.0004)
 -->
<!-- Title: dependencies Pages: 1 -->
<svg width="1619pt" height="211pt"
 viewBox="0.00 0.00 1619.00 211.00" xmlns="http://www.w3.org/2000/svg" xmlns:xlink="http://www.w3.org/1999/xlink">
<g id="graph0" class="graph" transform="scale(1 1) rotate(0) translate(4 207)">
<title>dependencies</title>
<polygon fill="white" stroke="transparent" points="-4,4 -4,-207 1615,-207 1615,4 -4,4"/>
<text text-anchor="start" x="784.51" y="-42.4" font-family="Times-12" font-weight="bold" font-size="14.00">Legend</text>
<polygon fill="#ffffb3" stroke="transparent" points="571.5,-10 571.5,-30 591.5,-30 591.5,-10 571.5,-10"/>
<text text-anchor="start" x="595.13" y="-15.4" font-family="Times-12" font-size="14.00"> &#160;Declarations</text>
<polygon fill="#8dd3c7" stroke="transparent" points="684.5,-10 684.5,-30 704.5,-30 704.5,-10 684.5,-10"/>
<text text-anchor="start" x="708.23" y="-15.4" font-family="Times-12" font-size="14.00"> &#160;Module</text>
<polygon fill="#80b1d3" stroke="transparent" points="770.5,-10 770.5,-30 790.5,-30 790.5,-10 770.5,-10"/>
<text text-anchor="start" x="794.28" y="-15.4" font-family="Times-12" font-size="14.00"> &#160;Bootstrap</text>
<polygon fill="#fdb462" stroke="transparent" points="867.5,-10 867.5,-30 887.5,-30 887.5,-10 867.5,-10"/>
<text text-anchor="start" x="891.17" y="-15.4" font-family="Times-12" font-size="14.00"> &#160;Providers</text>
<polygon fill="#fb8072" stroke="transparent" points="963.5,-10 963.5,-30 983.5,-30 983.5,-10 963.5,-10"/>
<text text-anchor="start" x="987.23" y="-15.4" font-family="Times-12" font-size="14.00"> &#160;Exports</text>
<g id="clust1" class="cluster">
<title>cluster_AppModule</title>
<polygon fill="none" stroke="black" stroke-dasharray="1,5" points="8,-70 8,-195 1603,-195 1603,-70 8,-70"/>
</g>
<g id="clust6" class="cluster">
<title>cluster_AppModule_providers</title>
<polygon fill="none" stroke="black" points="1465,-78 1465,-130 1595,-130 1595,-78 1465,-78"/>
</g>
<g id="clust3" class="cluster">
<title>cluster_AppModule_imports</title>
<polygon fill="none" stroke="black" points="16,-78 16,-130 1457,-130 1457,-78 16,-78"/>
</g>
<!-- AuthModule -->
<g id="node1" class="node">
<title>AuthModule</title>
<polygon fill="#8dd3c7" stroke="black" points="1448.55,-122 1445.55,-126 1424.55,-126 1421.55,-122 1361.45,-122 1361.45,-86 1448.55,-86 1448.55,-122"/>
<text text-anchor="middle" x="1405" y="-99.8" font-family="Times,serif" font-size="14.00">AuthModule</text>
</g>
<!-- AppModule -->
<g id="node13" class="node">
<title>AppModule</title>
<polygon fill="#8dd3c7" stroke="black" points="847.66,-187 844.66,-191 823.66,-191 820.66,-187 764.34,-187 764.34,-151 847.66,-151 847.66,-187"/>
<text text-anchor="middle" x="806" y="-164.8" font-family="Times,serif" font-size="14.00">AppModule</text>
</g>
<!-- AuthModule&#45;&gt;AppModule -->
<g id="edge1" class="edge">
<title>AuthModule&#45;&gt;AppModule</title>
<path fill="none" stroke="black" d="M1405,-122.04C1405,-143.66 1405,-177 1405,-177 1405,-177 858.12,-177 858.12,-177"/>
<polygon fill="black" stroke="black" points="858.12,-173.5 848.12,-177 858.12,-180.5 858.12,-173.5"/>
</g>
<!-- CompaniesModule -->
<g id="node2" class="node">
<title>CompaniesModule</title>
<polygon fill="#8dd3c7" stroke="black" points="1343.04,-122 1340.04,-126 1319.04,-126 1316.04,-122 1220.96,-122 1220.96,-86 1343.04,-86 1343.04,-122"/>
<text text-anchor="middle" x="1282" y="-99.8" font-family="Times,serif" font-size="14.00">CompaniesModule</text>
</g>
<!-- CompaniesModule&#45;&gt;AppModule -->
<g id="edge2" class="edge">
<title>CompaniesModule&#45;&gt;AppModule</title>
<path fill="none" stroke="black" d="M1282,-122.22C1282,-142.37 1282,-172 1282,-172 1282,-172 857.82,-172 857.82,-172"/>
<polygon fill="black" stroke="black" points="857.82,-168.5 847.82,-172 857.82,-175.5 857.82,-168.5"/>
</g>
<!-- DatabasesModule -->
<g id="node3" class="node">
<title>DatabasesModule</title>
<polygon fill="#8dd3c7" stroke="black" points="1203.29,-122 1200.29,-126 1179.29,-126 1176.29,-122 1086.71,-122 1086.71,-86 1203.29,-86 1203.29,-122"/>
<text text-anchor="middle" x="1145" y="-99.8" font-family="Times,serif" font-size="14.00">DatabasesModule</text>
</g>
<!-- DatabasesModule&#45;&gt;AppModule -->
<g id="edge3" class="edge">
<title>DatabasesModule&#45;&gt;AppModule</title>
<path fill="none" stroke="black" d="M1145,-122.22C1145,-140.83 1145,-167 1145,-167 1145,-167 857.91,-167 857.91,-167"/>
<polygon fill="black" stroke="black" points="857.91,-163.5 847.91,-167 857.91,-170.5 857.91,-163.5"/>
</g>
<!-- FilesModule -->
<g id="node4" class="node">
<title>FilesModule</title>
<polygon fill="#8dd3c7" stroke="black" points="1068.27,-122 1065.27,-126 1044.27,-126 1041.27,-122 981.73,-122 981.73,-86 1068.27,-86 1068.27,-122"/>
<text text-anchor="middle" x="1025" y="-99.8" font-family="Times,serif" font-size="14.00">FilesModule</text>
</g>
<!-- FilesModule&#45;&gt;AppModule -->
<g id="edge4" class="edge">
<title>FilesModule&#45;&gt;AppModule</title>
<path fill="none" stroke="black" d="M1025,-122.03C1025,-139.06 1025,-162 1025,-162 1025,-162 857.71,-162 857.71,-162"/>
<polygon fill="black" stroke="black" points="857.71,-158.5 847.71,-162 857.71,-165.5 857.71,-158.5"/>
</g>
<!-- HealthModule -->
<g id="node5" class="node">
<title>HealthModule</title>
<polygon fill="#8dd3c7" stroke="black" points="963.37,-122 960.37,-126 939.37,-126 936.37,-122 866.63,-122 866.63,-86 963.37,-86 963.37,-122"/>
<text text-anchor="middle" x="915" y="-99.8" font-family="Times,serif" font-size="14.00">HealthModule</text>
</g>
<!-- HealthModule&#45;&gt;AppModule -->
<g id="edge5" class="edge">
<title>HealthModule&#45;&gt;AppModule</title>
<path fill="none" stroke="black" d="M915,-122.24C915,-137.57 915,-157 915,-157 915,-157 857.83,-157 857.83,-157"/>
<polygon fill="black" stroke="black" points="857.83,-153.5 847.83,-157 857.83,-160.5 857.83,-153.5"/>
</g>
<!-- JobsModule -->
<g id="node6" class="node">
<title>JobsModule</title>
<polygon fill="#8dd3c7" stroke="black" points="848.44,-122 845.44,-126 824.44,-126 821.44,-122 763.56,-122 763.56,-86 848.44,-86 848.44,-122"/>
<text text-anchor="middle" x="806" y="-99.8" font-family="Times,serif" font-size="14.00">JobsModule</text>
</g>
<!-- JobsModule&#45;&gt;AppModule -->
<g id="edge6" class="edge">
<title>JobsModule&#45;&gt;AppModule</title>
<path fill="none" stroke="black" d="M806,-122.11C806,-122.11 806,-140.99 806,-140.99"/>
<polygon fill="black" stroke="black" points="802.5,-140.99 806,-150.99 809.5,-140.99 802.5,-140.99"/>
</g>
<!-- MailModule -->
<g id="node7" class="node">
<title>MailModule</title>
<polygon fill="#8dd3c7" stroke="black" points="745.99,-122 742.99,-126 721.99,-126 718.99,-122 660.01,-122 660.01,-86 745.99,-86 745.99,-122"/>
<text text-anchor="middle" x="703" y="-99.8" font-family="Times,serif" font-size="14.00">MailModule</text>
</g>
<!-- MailModule&#45;&gt;AppModule -->
<g id="edge7" class="edge">
<title>MailModule&#45;&gt;AppModule</title>
<path fill="none" stroke="black" d="M703,-122.24C703,-137.57 703,-157 703,-157 703,-157 754.11,-157 754.11,-157"/>
<polygon fill="black" stroke="black" points="754.11,-160.5 764.11,-157 754.11,-153.5 754.11,-160.5"/>
</g>
<!-- PermissionsModule -->
<g id="node8" class="node">
<title>PermissionsModule</title>
<polygon fill="#8dd3c7" stroke="black" points="641.71,-122 638.71,-126 617.71,-126 614.71,-122 514.29,-122 514.29,-86 641.71,-86 641.71,-122"/>
<text text-anchor="middle" x="578" y="-99.8" font-family="Times,serif" font-size="14.00">PermissionsModule</text>
</g>
<!-- PermissionsModule&#45;&gt;AppModule -->
<g id="edge8" class="edge">
<title>PermissionsModule&#45;&gt;AppModule</title>
<path fill="none" stroke="black" d="M578,-122.03C578,-139.06 578,-162 578,-162 578,-162 754.18,-162 754.18,-162"/>
<polygon fill="black" stroke="black" points="754.18,-165.5 764.18,-162 754.18,-158.5 754.18,-165.5"/>
</g>
<!-- ResumesModule -->
<g id="node9" class="node">
<title>ResumesModule</title>
<polygon fill="#8dd3c7" stroke="black" points="496.1,-122 493.1,-126 472.1,-126 469.1,-122 385.9,-122 385.9,-86 496.1,-86 496.1,-122"/>
<text text-anchor="middle" x="441" y="-99.8" font-family="Times,serif" font-size="14.00">ResumesModule</text>
</g>
<!-- ResumesModule&#45;&gt;AppModule -->
<g id="edge9" class="edge">
<title>ResumesModule&#45;&gt;AppModule</title>
<path fill="none" stroke="black" d="M441,-122.22C441,-140.83 441,-167 441,-167 441,-167 754.13,-167 754.13,-167"/>
<polygon fill="black" stroke="black" points="754.13,-170.5 764.13,-167 754.13,-163.5 754.13,-170.5"/>
</g>
<!-- RolesModule -->
<g id="node10" class="node">
<title>RolesModule</title>
<polygon fill="#8dd3c7" stroke="black" points="367.94,-122 364.94,-126 343.94,-126 340.94,-122 276.06,-122 276.06,-86 367.94,-86 367.94,-122"/>
<text text-anchor="middle" x="322" y="-99.8" font-family="Times,serif" font-size="14.00">RolesModule</text>
</g>
<!-- RolesModule&#45;&gt;AppModule -->
<g id="edge10" class="edge">
<title>RolesModule&#45;&gt;AppModule</title>
<path fill="none" stroke="black" d="M322,-122.22C322,-142.37 322,-172 322,-172 322,-172 754.32,-172 754.32,-172"/>
<polygon fill="black" stroke="black" points="754.32,-175.5 764.32,-172 754.32,-168.5 754.32,-175.5"/>
</g>
<!-- SubscribersModule -->
<g id="node11" class="node">
<title>SubscribersModule</title>
<polygon fill="#8dd3c7" stroke="black" points="258.36,-122 255.36,-126 234.36,-126 231.36,-122 133.64,-122 133.64,-86 258.36,-86 258.36,-122"/>
<text text-anchor="middle" x="196" y="-99.8" font-family="Times,serif" font-size="14.00">SubscribersModule</text>
</g>
<!-- SubscribersModule&#45;&gt;AppModule -->
<g id="edge11" class="edge">
<title>SubscribersModule&#45;&gt;AppModule</title>
<path fill="none" stroke="black" d="M196,-122.04C196,-143.66 196,-177 196,-177 196,-177 754.07,-177 754.07,-177"/>
<polygon fill="black" stroke="black" points="754.07,-180.5 764.07,-177 754.07,-173.5 754.07,-180.5"/>
</g>
<!-- UsersModule -->
<g id="node12" class="node">
<title>UsersModule</title>
<polygon fill="#8dd3c7" stroke="black" points="115.92,-122 112.92,-126 91.92,-126 88.92,-122 24.08,-122 24.08,-86 115.92,-86 115.92,-122"/>
<text text-anchor="middle" x="70" y="-99.8" font-family="Times,serif" font-size="14.00">UsersModule</text>
</g>
<!-- UsersModule&#45;&gt;AppModule -->
<g id="edge12" class="edge">
<title>UsersModule&#45;&gt;AppModule</title>
<path fill="none" stroke="black" d="M70,-122.09C70,-145.13 70,-182 70,-182 70,-182 754.32,-182 754.32,-182"/>
<polygon fill="black" stroke="black" points="754.32,-185.5 764.32,-182 754.32,-178.5 754.32,-185.5"/>
</g>
<!-- AppService -->
<g id="node14" class="node">
<title>AppService</title>
<ellipse fill="#fdb462" stroke="black" cx="1530" cy="-104" rx="56.74" ry="18"/>
<text text-anchor="middle" x="1530" y="-99.8" font-family="Times,serif" font-size="14.00">AppService</text>
</g>
<!-- AppService&#45;&gt;AppModule -->
<g id="edge13" class="edge">
<title>AppService&#45;&gt;AppModule</title>
<path fill="none" stroke="black" d="M1530,-122.09C1530,-145.13 1530,-182 1530,-182 1530,-182 857.79,-182 857.79,-182"/>
<polygon fill="black" stroke="black" points="857.79,-178.5 847.79,-182 857.79,-185.5 857.79,-178.5"/>
</g>
</g>
</svg>
