<?xml version="1.0" encoding="UTF-8" standalone="no"?>
<!DOCTYPE svg PUBLIC "-//W3C//DTD SVG 1.1//EN"
 "http://www.w3.org/Graphics/SVG/1.1/DTD/svg11.dtd">
<!-- Generated by graphviz version 2.47.0 (20210316.0004)
 -->
<!-- Title: dependencies Pages: 1 -->
<svg width="2439pt" height="431pt"
 viewBox="0.00 0.00 2439.00 431.00" xmlns="http://www.w3.org/2000/svg" xmlns:xlink="http://www.w3.org/1999/xlink">
<g id="graph0" class="graph" transform="scale(1 1) rotate(0) translate(4 427)">
<title>dependencies</title>
<polygon fill="white" stroke="transparent" points="-4,4 -4,-427 2435,-427 2435,4 -4,4"/>
<text text-anchor="start" x="1194.51" y="-42.4" font-family="Times-12" font-weight="bold" font-size="14.00">Legend</text>
<polygon fill="#ffffb3" stroke="transparent" points="981.5,-10 981.5,-30 1001.5,-30 1001.5,-10 981.5,-10"/>
<text text-anchor="start" x="1005.13" y="-15.4" font-family="Times-12" font-size="14.00"> &#160;Declarations</text>
<polygon fill="#8dd3c7" stroke="transparent" points="1094.5,-10 1094.5,-30 1114.5,-30 1114.5,-10 1094.5,-10"/>
<text text-anchor="start" x="1118.23" y="-15.4" font-family="Times-12" font-size="14.00"> &#160;Module</text>
<polygon fill="#80b1d3" stroke="transparent" points="1180.5,-10 1180.5,-30 1200.5,-30 1200.5,-10 1180.5,-10"/>
<text text-anchor="start" x="1204.28" y="-15.4" font-family="Times-12" font-size="14.00"> &#160;Bootstrap</text>
<polygon fill="#fdb462" stroke="transparent" points="1277.5,-10 1277.5,-30 1297.5,-30 1297.5,-10 1277.5,-10"/>
<text text-anchor="start" x="1301.17" y="-15.4" font-family="Times-12" font-size="14.00"> &#160;Providers</text>
<polygon fill="#fb8072" stroke="transparent" points="1373.5,-10 1373.5,-30 1393.5,-30 1393.5,-10 1373.5,-10"/>
<text text-anchor="start" x="1397.23" y="-15.4" font-family="Times-12" font-size="14.00"> &#160;Exports</text>
<g id="clust1" class="cluster">
<title>cluster_AppModule</title>
<polygon fill="none" stroke="black" stroke-dasharray="1,5" points="560,-146 560,-415 1817,-415 1817,-146 560,-146"/>
</g>
<g id="clust3" class="cluster">
<title>cluster_AppModule_imports</title>
<polygon fill="none" stroke="black" points="706,-154 706,-350 1809,-350 1809,-154 706,-154"/>
</g>
<g id="clust6" class="cluster">
<title>cluster_AppModule_providers</title>
<polygon fill="none" stroke="black" points="568,-298 568,-350 698,-350 698,-298 568,-298"/>
</g>
<g id="clust7" class="cluster">
<title>cluster_AuthModule</title>
<polygon fill="none" stroke="black" stroke-dasharray="1,5" points="8,-146 8,-214 552,-214 552,-146 8,-146"/>
</g>
<g id="clust10" class="cluster">
<title>cluster_AuthModule_exports</title>
<polygon fill="none" stroke="black" points="438,-154 438,-206 544,-206 544,-154 438,-154"/>
</g>
<g id="clust12" class="cluster">
<title>cluster_AuthModule_providers</title>
<polygon fill="none" stroke="black" points="16,-154 16,-206 430,-206 430,-154 16,-154"/>
</g>
<g id="clust13" class="cluster">
<title>cluster_CompaniesModule</title>
<polygon fill="none" stroke="black" stroke-dasharray="1,5" points="665,-70 665,-138 863,-138 863,-70 665,-70"/>
</g>
<g id="clust18" class="cluster">
<title>cluster_CompaniesModule_providers</title>
<polygon fill="none" stroke="black" points="673,-78 673,-130 855,-130 855,-78 673,-78"/>
</g>
<g id="clust19" class="cluster">
<title>cluster_DatabasesModule</title>
<polygon fill="none" stroke="black" stroke-dasharray="1,5" points="871,-70 871,-138 1203,-138 1203,-70 871,-70"/>
</g>
<g id="clust24" class="cluster">
<title>cluster_DatabasesModule_providers</title>
<polygon fill="none" stroke="black" points="879,-78 879,-130 1195,-130 1195,-78 879,-78"/>
</g>
<g id="clust25" class="cluster">
<title>cluster_FilesModule</title>
<polygon fill="none" stroke="black" stroke-dasharray="1,5" points="1211,-70 1211,-138 1361,-138 1361,-70 1211,-70"/>
</g>
<g id="clust30" class="cluster">
<title>cluster_FilesModule_providers</title>
<polygon fill="none" stroke="black" points="1219,-78 1219,-130 1353,-130 1353,-78 1219,-78"/>
</g>
<g id="clust37" class="cluster">
<title>cluster_JobsModule</title>
<polygon fill="none" stroke="black" stroke-dasharray="1,5" points="406,-222 406,-290 552,-290 552,-222 406,-222"/>
</g>
<g id="clust42" class="cluster">
<title>cluster_JobsModule_providers</title>
<polygon fill="none" stroke="black" points="414,-230 414,-282 544,-282 544,-230 414,-230"/>
</g>
<g id="clust43" class="cluster">
<title>cluster_MailModule</title>
<polygon fill="none" stroke="black" stroke-dasharray="1,5" points="1369,-70 1369,-138 1517,-138 1517,-70 1369,-70"/>
</g>
<g id="clust48" class="cluster">
<title>cluster_MailModule_providers</title>
<polygon fill="none" stroke="black" points="1377,-78 1377,-130 1509,-130 1509,-78 1377,-78"/>
</g>
<g id="clust49" class="cluster">
<title>cluster_PermissionsModule</title>
<polygon fill="none" stroke="black" stroke-dasharray="1,5" points="1525,-70 1525,-138 1731,-138 1731,-70 1525,-70"/>
</g>
<g id="clust54" class="cluster">
<title>cluster_PermissionsModule_providers</title>
<polygon fill="none" stroke="black" points="1533,-78 1533,-130 1723,-130 1723,-78 1533,-78"/>
</g>
<g id="clust55" class="cluster">
<title>cluster_ResumesModule</title>
<polygon fill="none" stroke="black" stroke-dasharray="1,5" points="2241,-222 2241,-290 2423,-290 2423,-222 2241,-222"/>
</g>
<g id="clust60" class="cluster">
<title>cluster_ResumesModule_providers</title>
<polygon fill="none" stroke="black" points="2249,-230 2249,-282 2415,-282 2415,-230 2249,-230"/>
</g>
<g id="clust61" class="cluster">
<title>cluster_RolesModule</title>
<polygon fill="none" stroke="black" stroke-dasharray="1,5" points="1825,-222 1825,-290 2099,-290 2099,-222 1825,-222"/>
</g>
<g id="clust64" class="cluster">
<title>cluster_RolesModule_exports</title>
<polygon fill="none" stroke="black" points="1981,-230 1981,-282 2091,-282 2091,-230 1981,-230"/>
</g>
<g id="clust66" class="cluster">
<title>cluster_RolesModule_providers</title>
<polygon fill="none" stroke="black" points="1833,-230 1833,-282 1973,-282 1973,-230 1833,-230"/>
</g>
<g id="clust67" class="cluster">
<title>cluster_SubscribersModule</title>
<polygon fill="none" stroke="black" stroke-dasharray="1,5" points="1739,-70 1739,-138 1941,-138 1941,-70 1739,-70"/>
</g>
<g id="clust72" class="cluster">
<title>cluster_SubscribersModule_providers</title>
<polygon fill="none" stroke="black" points="1747,-78 1747,-130 1933,-130 1933,-78 1747,-78"/>
</g>
<g id="clust73" class="cluster">
<title>cluster_UsersModule</title>
<polygon fill="none" stroke="black" stroke-dasharray="1,5" points="2107,-222 2107,-290 2233,-290 2233,-222 2107,-222"/>
</g>
<g id="clust76" class="cluster">
<title>cluster_UsersModule_exports</title>
<polygon fill="none" stroke="black" points="2115,-230 2115,-282 2225,-282 2225,-230 2115,-230"/>
</g>
<!-- AuthModule -->
<g id="node1" class="node">
<title>AuthModule</title>
<polygon fill="#8dd3c7" stroke="black" points="911.55,-274 908.55,-278 887.55,-278 884.55,-274 824.45,-274 824.45,-238 911.55,-238 911.55,-274"/>
<text text-anchor="middle" x="868" y="-251.8" font-family="Times,serif" font-size="14.00">AuthModule</text>
</g>
<!-- JobsModule -->
<g id="node6" class="node">
<title>JobsModule</title>
<polygon fill="#8dd3c7" stroke="black" points="910.44,-342 907.44,-346 886.44,-346 883.44,-342 825.56,-342 825.56,-306 910.44,-306 910.44,-342"/>
<text text-anchor="middle" x="868" y="-319.8" font-family="Times,serif" font-size="14.00">JobsModule</text>
</g>
<!-- AuthModule&#45;&gt;JobsModule -->
<g id="edge24" class="edge">
<title>AuthModule&#45;&gt;JobsModule</title>
<path fill="none" stroke="black" d="M853.93,-274.22C853.93,-274.22 853.93,-295.73 853.93,-295.73"/>
<polygon fill="black" stroke="black" points="850.43,-295.73 853.93,-305.73 857.43,-295.73 850.43,-295.73"/>
</g>
<!-- ResumesModule -->
<g id="node9" class="node">
<title>ResumesModule</title>
<polygon fill="#8dd3c7" stroke="black" points="1038.1,-342 1035.1,-346 1014.1,-346 1011.1,-342 927.9,-342 927.9,-306 1038.1,-306 1038.1,-342"/>
<text text-anchor="middle" x="983" y="-319.8" font-family="Times,serif" font-size="14.00">ResumesModule</text>
</g>
<!-- AuthModule&#45;&gt;ResumesModule -->
<g id="edge29" class="edge">
<title>AuthModule&#45;&gt;ResumesModule</title>
<path fill="none" stroke="black" d="M911.72,-268C926.63,-268 939.61,-268 939.61,-268 939.61,-268 939.61,-295.97 939.61,-295.97"/>
<polygon fill="black" stroke="black" points="936.11,-295.97 939.61,-305.97 943.11,-295.97 936.11,-295.97"/>
</g>
<!-- AppModule -->
<g id="node13" class="node">
<title>AppModule</title>
<polygon fill="#8dd3c7" stroke="black" points="1158.66,-407 1155.66,-411 1134.66,-411 1131.66,-407 1075.34,-407 1075.34,-371 1158.66,-371 1158.66,-407"/>
<text text-anchor="middle" x="1117" y="-384.8" font-family="Times,serif" font-size="14.00">AppModule</text>
</g>
<!-- AuthModule&#45;&gt;AppModule -->
<g id="edge1" class="edge">
<title>AuthModule&#45;&gt;AppModule</title>
<path fill="none" stroke="black" d="M911.69,-262C983.56,-262 1118.84,-262 1118.84,-262 1118.84,-262 1118.84,-360.8 1118.84,-360.8"/>
<polygon fill="black" stroke="black" points="1115.34,-360.8 1118.84,-370.8 1122.34,-360.8 1115.34,-360.8"/>
</g>
<!-- AuthService  -->
<g id="node15" class="node">
<title>AuthService </title>
<polygon fill="#fb8072" stroke="black" points="535.98,-198 446.02,-198 446.02,-162 535.98,-162 535.98,-198"/>
<text text-anchor="middle" x="491" y="-175.8" font-family="Times,serif" font-size="14.00">AuthService </text>
</g>
<!-- AuthModule&#45;&gt;AuthService  -->
<g id="edge16" class="edge">
<title>AuthModule&#45;&gt;AuthService </title>
<path fill="none" stroke="black" stroke-dasharray="5,2" d="M824.05,-250C775.95,-250 705.58,-250 705.58,-250 705.58,-250 705.58,-180 705.58,-180 705.58,-180 545.98,-180 545.98,-180"/>
<polygon fill="black" stroke="black" points="545.98,-176.5 535.98,-180 545.98,-183.5 545.98,-176.5"/>
</g>
<!-- CompaniesModule -->
<g id="node2" class="node">
<title>CompaniesModule</title>
<polygon fill="#8dd3c7" stroke="black" points="951.04,-198 948.04,-202 927.04,-202 924.04,-198 828.96,-198 828.96,-162 951.04,-162 951.04,-198"/>
<text text-anchor="middle" x="890" y="-175.8" font-family="Times,serif" font-size="14.00">CompaniesModule</text>
</g>
<!-- CompaniesModule&#45;&gt;AppModule -->
<g id="edge2" class="edge">
<title>CompaniesModule&#45;&gt;AppModule</title>
<path fill="none" stroke="black" d="M919.86,-198.01C919.86,-247.7 919.86,-383 919.86,-383 919.86,-383 1065.19,-383 1065.19,-383"/>
<polygon fill="black" stroke="black" points="1065.19,-386.5 1075.19,-383 1065.19,-379.5 1065.19,-386.5"/>
</g>
<!-- DatabasesModule -->
<g id="node3" class="node">
<title>DatabasesModule</title>
<polygon fill="#8dd3c7" stroke="black" points="1195.29,-198 1192.29,-202 1171.29,-202 1168.29,-198 1078.71,-198 1078.71,-162 1195.29,-162 1195.29,-198"/>
<text text-anchor="middle" x="1137" y="-175.8" font-family="Times,serif" font-size="14.00">DatabasesModule</text>
</g>
<!-- DatabasesModule&#45;&gt;AppModule -->
<g id="edge3" class="edge">
<title>DatabasesModule&#45;&gt;AppModule</title>
<path fill="none" stroke="black" d="M1138.83,-198.18C1138.83,-198.18 1138.83,-360.71 1138.83,-360.71"/>
<polygon fill="black" stroke="black" points="1135.33,-360.71 1138.83,-370.71 1142.33,-360.71 1135.33,-360.71"/>
</g>
<!-- FilesModule -->
<g id="node4" class="node">
<title>FilesModule</title>
<polygon fill="#8dd3c7" stroke="black" points="1300.27,-198 1297.27,-202 1276.27,-202 1273.27,-198 1213.73,-198 1213.73,-162 1300.27,-162 1300.27,-198"/>
<text text-anchor="middle" x="1257" y="-175.8" font-family="Times,serif" font-size="14.00">FilesModule</text>
</g>
<!-- FilesModule&#45;&gt;AppModule -->
<g id="edge4" class="edge">
<title>FilesModule&#45;&gt;AppModule</title>
<path fill="none" stroke="black" d="M1257,-198.18C1257,-246.95 1257,-377 1257,-377 1257,-377 1169,-377 1169,-377"/>
<polygon fill="black" stroke="black" points="1169,-373.5 1159,-377 1169,-380.5 1169,-373.5"/>
</g>
<!-- HealthModule -->
<g id="node5" class="node">
<title>HealthModule</title>
<polygon fill="#8dd3c7" stroke="black" points="810.37,-198 807.37,-202 786.37,-202 783.37,-198 713.63,-198 713.63,-162 810.37,-162 810.37,-198"/>
<text text-anchor="middle" x="762" y="-175.8" font-family="Times,serif" font-size="14.00">HealthModule</text>
</g>
<!-- HealthModule&#45;&gt;AppModule -->
<g id="edge5" class="edge">
<title>HealthModule&#45;&gt;AppModule</title>
<path fill="none" stroke="black" d="M762,-198.33C762,-250.32 762,-395 762,-395 762,-395 1065.23,-395 1065.23,-395"/>
<polygon fill="black" stroke="black" points="1065.23,-398.5 1075.23,-395 1065.23,-391.5 1065.23,-398.5"/>
</g>
<!-- JobsModule&#45;&gt;AppModule -->
<g id="edge6" class="edge">
<title>JobsModule&#45;&gt;AppModule</title>
<path fill="none" stroke="black" d="M868,-342.11C868,-361.34 868,-389 868,-389 868,-389 1065.32,-389 1065.32,-389"/>
<polygon fill="black" stroke="black" points="1065.32,-392.5 1075.32,-389 1065.32,-385.5 1065.32,-392.5"/>
</g>
<!-- MailModule -->
<g id="node7" class="node">
<title>MailModule</title>
<polygon fill="#8dd3c7" stroke="black" points="1403.99,-198 1400.99,-202 1379.99,-202 1376.99,-198 1318.01,-198 1318.01,-162 1403.99,-162 1403.99,-198"/>
<text text-anchor="middle" x="1361" y="-175.8" font-family="Times,serif" font-size="14.00">MailModule</text>
</g>
<!-- MailModule&#45;&gt;AppModule -->
<g id="edge7" class="edge">
<title>MailModule&#45;&gt;AppModule</title>
<path fill="none" stroke="black" d="M1361,-198.01C1361,-247.7 1361,-383 1361,-383 1361,-383 1168.67,-383 1168.67,-383"/>
<polygon fill="black" stroke="black" points="1168.67,-379.5 1158.67,-383 1168.67,-386.5 1168.67,-379.5"/>
</g>
<!-- PermissionsModule -->
<g id="node8" class="node">
<title>PermissionsModule</title>
<polygon fill="#8dd3c7" stroke="black" points="1549.71,-198 1546.71,-202 1525.71,-202 1522.71,-198 1422.29,-198 1422.29,-162 1549.71,-162 1549.71,-198"/>
<text text-anchor="middle" x="1486" y="-175.8" font-family="Times,serif" font-size="14.00">PermissionsModule</text>
</g>
<!-- PermissionsModule&#45;&gt;AppModule -->
<g id="edge8" class="edge">
<title>PermissionsModule&#45;&gt;AppModule</title>
<path fill="none" stroke="black" d="M1486,-198.18C1486,-249.03 1486,-389 1486,-389 1486,-389 1168.97,-389 1168.97,-389"/>
<polygon fill="black" stroke="black" points="1168.97,-385.5 1158.97,-389 1168.97,-392.5 1168.97,-385.5"/>
</g>
<!-- ResumesModule&#45;&gt;AppModule -->
<g id="edge9" class="edge">
<title>ResumesModule&#45;&gt;AppModule</title>
<path fill="none" stroke="black" d="M1038.21,-330C1068.05,-330 1098.85,-330 1098.85,-330 1098.85,-330 1098.85,-360.98 1098.85,-360.98"/>
<polygon fill="black" stroke="black" points="1095.35,-360.98 1098.85,-370.98 1102.35,-360.98 1095.35,-360.98"/>
</g>
<!-- RolesModule -->
<g id="node10" class="node">
<title>RolesModule</title>
<polygon fill="#8dd3c7" stroke="black" points="1658.94,-198 1655.94,-202 1634.94,-202 1631.94,-198 1567.06,-198 1567.06,-162 1658.94,-162 1658.94,-198"/>
<text text-anchor="middle" x="1613" y="-175.8" font-family="Times,serif" font-size="14.00">RolesModule</text>
</g>
<!-- RolesModule&#45;&gt;AuthModule -->
<g id="edge14" class="edge">
<title>RolesModule&#45;&gt;AuthModule</title>
<path fill="none" stroke="black" d="M1585.57,-198.01C1585.57,-220.49 1585.57,-256 1585.57,-256 1585.57,-256 921.81,-256 921.81,-256"/>
<polygon fill="black" stroke="black" points="921.81,-252.5 911.81,-256 921.81,-259.5 921.81,-252.5"/>
</g>
<!-- RolesModule&#45;&gt;AppModule -->
<g id="edge10" class="edge">
<title>RolesModule&#45;&gt;AppModule</title>
<path fill="none" stroke="black" d="M1603.86,-198.33C1603.86,-250.32 1603.86,-395 1603.86,-395 1603.86,-395 1168.93,-395 1168.93,-395"/>
<polygon fill="black" stroke="black" points="1168.93,-391.5 1158.93,-395 1168.93,-398.5 1168.93,-391.5"/>
</g>
<!-- RolesService  -->
<g id="node27" class="node">
<title>RolesService </title>
<polygon fill="#fb8072" stroke="black" points="2082.86,-274 1989.14,-274 1989.14,-238 2082.86,-238 2082.86,-274"/>
<text text-anchor="middle" x="2036" y="-251.8" font-family="Times,serif" font-size="14.00">RolesService </text>
</g>
<!-- RolesModule&#45;&gt;RolesService  -->
<g id="edge31" class="edge">
<title>RolesModule&#45;&gt;RolesService </title>
<path fill="none" stroke="black" stroke-dasharray="5,2" d="M1622.14,-198.19C1622.14,-213.18 1622.14,-232 1622.14,-232 1622.14,-232 2036,-232 2036,-232 2036,-232 2036,-232.58 2036,-232.58"/>
<polygon fill="black" stroke="black" points="2032.5,-227.81 2036,-237.81 2039.5,-227.81 2032.5,-227.81"/>
</g>
<!-- SubscribersModule -->
<g id="node11" class="node">
<title>SubscribersModule</title>
<polygon fill="#8dd3c7" stroke="black" points="1801.36,-198 1798.36,-202 1777.36,-202 1774.36,-198 1676.64,-198 1676.64,-162 1801.36,-162 1801.36,-198"/>
<text text-anchor="middle" x="1739" y="-175.8" font-family="Times,serif" font-size="14.00">SubscribersModule</text>
</g>
<!-- SubscribersModule&#45;&gt;AppModule -->
<g id="edge11" class="edge">
<title>SubscribersModule&#45;&gt;AppModule</title>
<path fill="none" stroke="black" d="M1739,-198.17C1739,-251.19 1739,-402 1739,-402 1739,-402 1168.78,-402 1168.78,-402"/>
<polygon fill="black" stroke="black" points="1168.78,-398.5 1158.78,-402 1168.78,-405.5 1168.78,-398.5"/>
</g>
<!-- UsersModule -->
<g id="node12" class="node">
<title>UsersModule</title>
<polygon fill="#8dd3c7" stroke="black" points="1060.92,-198 1057.92,-202 1036.92,-202 1033.92,-198 969.08,-198 969.08,-162 1060.92,-162 1060.92,-198"/>
<text text-anchor="middle" x="1015" y="-175.8" font-family="Times,serif" font-size="14.00">UsersModule</text>
</g>
<!-- UsersModule&#45;&gt;AuthModule -->
<g id="edge15" class="edge">
<title>UsersModule&#45;&gt;AuthModule</title>
<path fill="none" stroke="black" d="M992.21,-198.03C992.21,-218.77 992.21,-250 992.21,-250 992.21,-250 921.79,-250 921.79,-250"/>
<polygon fill="black" stroke="black" points="921.79,-246.5 911.79,-250 921.79,-253.5 921.79,-246.5"/>
</g>
<!-- UsersModule&#45;&gt;JobsModule -->
<g id="edge25" class="edge">
<title>UsersModule&#45;&gt;JobsModule</title>
<path fill="none" stroke="black" d="M1015.13,-198.16C1015.13,-229.41 1015.13,-290 1015.13,-290 1015.13,-290 882.07,-290 882.07,-290 882.07,-290 882.07,-295.81 882.07,-295.81"/>
<polygon fill="black" stroke="black" points="878.57,-295.81 882.07,-305.81 885.57,-295.81 878.57,-295.81"/>
</g>
<!-- UsersModule&#45;&gt;AppModule -->
<g id="edge12" class="edge">
<title>UsersModule&#45;&gt;AppModule</title>
<path fill="none" stroke="black" d="M1053.16,-198.18C1053.16,-246.95 1053.16,-377 1053.16,-377 1053.16,-377 1065.13,-377 1065.13,-377"/>
<polygon fill="black" stroke="black" points="1065.13,-380.5 1075.13,-377 1065.13,-373.5 1065.13,-380.5"/>
</g>
<!-- UsersService  -->
<g id="node30" class="node">
<title>UsersService </title>
<polygon fill="#fb8072" stroke="black" points="2216.85,-274 2123.15,-274 2123.15,-238 2216.85,-238 2216.85,-274"/>
<text text-anchor="middle" x="2170" y="-251.8" font-family="Times,serif" font-size="14.00">UsersService </text>
</g>
<!-- UsersModule&#45;&gt;UsersService  -->
<g id="edge34" class="edge">
<title>UsersModule&#45;&gt;UsersService </title>
<path fill="none" stroke="black" stroke-dasharray="5,2" d="M1045.6,-198.17C1045.6,-202.05 1045.6,-205 1045.6,-205 1045.6,-205 2170,-205 2170,-205 2170,-205 2170,-227.88 2170,-227.88"/>
<polygon fill="black" stroke="black" points="2166.5,-227.88 2170,-237.88 2173.5,-227.88 2166.5,-227.88"/>
</g>
<!-- AppService -->
<g id="node14" class="node">
<title>AppService</title>
<ellipse fill="#fdb462" stroke="black" cx="633" cy="-324" rx="56.74" ry="18"/>
<text text-anchor="middle" x="633" y="-319.8" font-family="Times,serif" font-size="14.00">AppService</text>
</g>
<!-- AppService&#45;&gt;AppModule -->
<g id="edge13" class="edge">
<title>AppService&#45;&gt;AppModule</title>
<path fill="none" stroke="black" d="M633,-342.09C633,-365.13 633,-402 633,-402 633,-402 1065.32,-402 1065.32,-402"/>
<polygon fill="black" stroke="black" points="1065.32,-405.5 1075.32,-402 1065.32,-398.5 1065.32,-405.5"/>
</g>
<!-- AuthService -->
<g id="node16" class="node">
<title>AuthService</title>
<ellipse fill="#fdb462" stroke="black" cx="363" cy="-180" rx="59.11" ry="18"/>
<text text-anchor="middle" x="363" y="-175.8" font-family="Times,serif" font-size="14.00">AuthService</text>
</g>
<!-- AuthService&#45;&gt;AuthModule -->
<g id="edge17" class="edge">
<title>AuthService&#45;&gt;AuthModule</title>
<path fill="none" stroke="black" d="M362.77,-198.24C362.77,-205.43 362.77,-212 362.77,-212 362.77,-212 891.01,-212 891.01,-212 891.01,-212 891.01,-227.85 891.01,-227.85"/>
<polygon fill="black" stroke="black" points="887.51,-227.85 891.01,-237.85 894.51,-227.85 887.51,-227.85"/>
</g>
<!-- JwtStrategy -->
<g id="node17" class="node">
<title>JwtStrategy</title>
<ellipse fill="#fdb462" stroke="black" cx="229" cy="-180" rx="56.76" ry="18"/>
<text text-anchor="middle" x="229" y="-175.8" font-family="Times,serif" font-size="14.00">JwtStrategy</text>
</g>
<!-- JwtStrategy&#45;&gt;AuthModule -->
<g id="edge18" class="edge">
<title>JwtStrategy&#45;&gt;AuthModule</title>
<path fill="none" stroke="black" d="M229,-198.11C229,-207.9 229,-218 229,-218 229,-218 870.25,-218 870.25,-218 870.25,-218 870.25,-227.89 870.25,-227.89"/>
<polygon fill="black" stroke="black" points="866.75,-227.89 870.25,-237.89 873.75,-227.89 866.75,-227.89"/>
</g>
<!-- LocalStrategy -->
<g id="node18" class="node">
<title>LocalStrategy</title>
<ellipse fill="#fdb462" stroke="black" cx="89" cy="-180" rx="65.41" ry="18"/>
<text text-anchor="middle" x="89" y="-175.8" font-family="Times,serif" font-size="14.00">LocalStrategy</text>
</g>
<!-- LocalStrategy&#45;&gt;AuthModule -->
<g id="edge19" class="edge">
<title>LocalStrategy&#45;&gt;AuthModule</title>
<path fill="none" stroke="black" d="M89,-198.04C89,-210.56 89,-225 89,-225 89,-225 849.49,-225 849.49,-225 849.49,-225 849.49,-227.97 849.49,-227.97"/>
<polygon fill="black" stroke="black" points="845.99,-227.97 849.49,-237.97 852.99,-227.97 845.99,-227.97"/>
</g>
<!-- CompaniesService -->
<g id="node19" class="node">
<title>CompaniesService</title>
<ellipse fill="#fdb462" stroke="black" cx="764" cy="-104" rx="83.38" ry="18"/>
<text text-anchor="middle" x="764" y="-99.8" font-family="Times,serif" font-size="14.00">CompaniesService</text>
</g>
<!-- CompaniesService&#45;&gt;CompaniesModule -->
<g id="edge20" class="edge">
<title>CompaniesService&#45;&gt;CompaniesModule</title>
<path fill="none" stroke="black" d="M838.09,-112.42C838.09,-112.42 838.09,-151.73 838.09,-151.73"/>
<polygon fill="black" stroke="black" points="834.59,-151.73 838.09,-161.73 841.59,-151.73 834.59,-151.73"/>
</g>
<!-- DatabasesService -->
<g id="node20" class="node">
<title>DatabasesService</title>
<ellipse fill="#fdb462" stroke="black" cx="1108" cy="-104" rx="79.27" ry="18"/>
<text text-anchor="middle" x="1108" y="-99.8" font-family="Times,serif" font-size="14.00">DatabasesService</text>
</g>
<!-- DatabasesService&#45;&gt;DatabasesModule -->
<g id="edge21" class="edge">
<title>DatabasesService&#45;&gt;DatabasesModule</title>
<path fill="none" stroke="black" d="M1151.04,-119.38C1151.04,-119.38 1151.04,-151.97 1151.04,-151.97"/>
<polygon fill="black" stroke="black" points="1147.54,-151.97 1151.04,-161.97 1154.54,-151.97 1147.54,-151.97"/>
</g>
<!-- UsersService -->
<g id="node21" class="node">
<title>UsersService</title>
<ellipse fill="#fdb462" stroke="black" cx="949" cy="-104" rx="61.95" ry="18"/>
<text text-anchor="middle" x="949" y="-99.8" font-family="Times,serif" font-size="14.00">UsersService</text>
</g>
<!-- UsersService&#45;&gt;DatabasesModule -->
<g id="edge22" class="edge">
<title>UsersService&#45;&gt;DatabasesModule</title>
<path fill="none" stroke="black" d="M997.08,-115.61C997.08,-126.78 997.08,-142 997.08,-142 997.08,-142 1114.95,-142 1114.95,-142 1114.95,-142 1114.95,-151.89 1114.95,-151.89"/>
<polygon fill="black" stroke="black" points="1111.45,-151.89 1114.95,-161.89 1118.45,-151.89 1111.45,-151.89"/>
</g>
<!-- UsersService&#45;&gt;UsersModule -->
<g id="edge35" class="edge">
<title>UsersService&#45;&gt;UsersModule</title>
<path fill="none" stroke="black" d="M983.19,-119.02C983.19,-119.02 983.19,-151.8 983.19,-151.8"/>
<polygon fill="black" stroke="black" points="979.69,-151.8 983.19,-161.8 986.69,-151.8 979.69,-151.8"/>
</g>
<!-- FilesService -->
<g id="node22" class="node">
<title>FilesService</title>
<ellipse fill="#fdb462" stroke="black" cx="1286" cy="-104" rx="58.54" ry="18"/>
<text text-anchor="middle" x="1286" y="-99.8" font-family="Times,serif" font-size="14.00">FilesService</text>
</g>
<!-- FilesService&#45;&gt;FilesModule -->
<g id="edge23" class="edge">
<title>FilesService&#45;&gt;FilesModule</title>
<path fill="none" stroke="black" d="M1263.81,-120.87C1263.81,-120.87 1263.81,-151.85 1263.81,-151.85"/>
<polygon fill="black" stroke="black" points="1260.31,-151.85 1263.81,-161.85 1267.31,-151.85 1260.31,-151.85"/>
</g>
<!-- JobsService -->
<g id="node23" class="node">
<title>JobsService</title>
<ellipse fill="#fdb462" stroke="black" cx="479" cy="-256" rx="57.32" ry="18"/>
<text text-anchor="middle" x="479" y="-251.8" font-family="Times,serif" font-size="14.00">JobsService</text>
</g>
<!-- JobsService&#45;&gt;JobsModule -->
<g id="edge26" class="edge">
<title>JobsService&#45;&gt;JobsModule</title>
<path fill="none" stroke="black" d="M533.04,-262C597.77,-262 697.6,-262 697.6,-262 697.6,-262 697.6,-324 697.6,-324 697.6,-324 815.44,-324 815.44,-324"/>
<polygon fill="black" stroke="black" points="815.44,-327.5 825.44,-324 815.44,-320.5 815.44,-327.5"/>
</g>
<!-- MailService -->
<g id="node24" class="node">
<title>MailService</title>
<ellipse fill="#fdb462" stroke="black" cx="1443" cy="-104" rx="58.46" ry="18"/>
<text text-anchor="middle" x="1443" y="-99.8" font-family="Times,serif" font-size="14.00">MailService</text>
</g>
<!-- MailService&#45;&gt;MailModule -->
<g id="edge27" class="edge">
<title>MailService&#45;&gt;MailModule</title>
<path fill="none" stroke="black" d="M1394.38,-113.94C1394.38,-113.94 1394.38,-151.91 1394.38,-151.91"/>
<polygon fill="black" stroke="black" points="1390.88,-151.91 1394.38,-161.91 1397.88,-151.91 1390.88,-151.91"/>
</g>
<!-- PermissionsService -->
<g id="node25" class="node">
<title>PermissionsService</title>
<ellipse fill="#fdb462" stroke="black" cx="1628" cy="-104" rx="86.83" ry="18"/>
<text text-anchor="middle" x="1628" y="-99.8" font-family="Times,serif" font-size="14.00">PermissionsService</text>
</g>
<!-- PermissionsService&#45;&gt;PermissionsModule -->
<g id="edge28" class="edge">
<title>PermissionsService&#45;&gt;PermissionsModule</title>
<path fill="none" stroke="black" d="M1545.47,-109.96C1545.47,-109.96 1545.47,-151.93 1545.47,-151.93"/>
<polygon fill="black" stroke="black" points="1541.97,-151.93 1545.47,-161.93 1548.97,-151.93 1541.97,-151.93"/>
</g>
<!-- ResumesService -->
<g id="node26" class="node">
<title>ResumesService</title>
<ellipse fill="#fdb462" stroke="black" cx="2332" cy="-256" rx="74.71" ry="18"/>
<text text-anchor="middle" x="2332" y="-251.8" font-family="Times,serif" font-size="14.00">ResumesService</text>
</g>
<!-- ResumesService&#45;&gt;ResumesModule -->
<g id="edge30" class="edge">
<title>ResumesService&#45;&gt;ResumesModule</title>
<path fill="none" stroke="black" d="M2332,-274.27C2332,-292.56 2332,-318 2332,-318 2332,-318 1048.4,-318 1048.4,-318"/>
<polygon fill="black" stroke="black" points="1048.4,-314.5 1038.4,-318 1048.4,-321.5 1048.4,-314.5"/>
</g>
<!-- RolesService -->
<g id="node28" class="node">
<title>RolesService</title>
<ellipse fill="#fdb462" stroke="black" cx="1903" cy="-256" rx="61.97" ry="18"/>
<text text-anchor="middle" x="1903" y="-251.8" font-family="Times,serif" font-size="14.00">RolesService</text>
</g>
<!-- RolesService&#45;&gt;RolesModule -->
<g id="edge32" class="edge">
<title>RolesService&#45;&gt;RolesModule</title>
<path fill="none" stroke="black" d="M1856.66,-244C1781.28,-244 1640.43,-244 1640.43,-244 1640.43,-244 1640.43,-208.17 1640.43,-208.17"/>
<polygon fill="black" stroke="black" points="1643.93,-208.17 1640.43,-198.17 1636.93,-208.17 1643.93,-208.17"/>
</g>
<!-- SubscribersService -->
<g id="node29" class="node">
<title>SubscribersService</title>
<ellipse fill="#fdb462" stroke="black" cx="1840" cy="-104" rx="85.09" ry="18"/>
<text text-anchor="middle" x="1840" y="-99.8" font-family="Times,serif" font-size="14.00">SubscribersService</text>
</g>
<!-- SubscribersService&#45;&gt;SubscribersModule -->
<g id="edge33" class="edge">
<title>SubscribersService&#45;&gt;SubscribersModule</title>
<path fill="none" stroke="black" d="M1778.19,-116.55C1778.19,-116.55 1778.19,-151.74 1778.19,-151.74"/>
<polygon fill="black" stroke="black" points="1774.69,-151.74 1778.19,-161.74 1781.69,-151.74 1774.69,-151.74"/>
</g>
</g>
</svg>
